<svg width="45" height="51" viewBox="0 0 45 51" fill="none" xmlns="http://www.w3.org/2000/svg">
<g clip-path="url(#clip0_1102_735)">
<path d="M37.6294 14.7428L37.2759 14.3892L36.9223 14.7428L31.7856 19.8795L31.4917 20.1734L31.727 20.5161C33.5765 23.2097 34.6665 26.4613 34.6665 29.9791C34.6665 39.1952 27.195 46.6666 17.979 46.6666C8.76296 46.6666 1.2915 39.1952 1.2915 29.9791C1.2915 20.7631 8.76296 13.2916 17.979 13.2916C21.4881 13.2916 24.7488 14.3725 27.4411 16.2305L27.784 16.4672L28.0786 16.1725L33.2154 11.0358L33.5689 10.6823L33.2154 10.3287L29.9537 7.06698C29.4241 6.53746 29.2692 5.74653 29.5547 5.05205C29.8378 4.3635 30.5126 3.91663 31.2603 3.91663H42.1978C43.2204 3.91663 44.0415 4.73769 44.0415 5.76038V16.6979C44.0415 17.4455 43.5946 18.1203 42.9061 18.4034C42.2116 18.6889 41.4207 18.534 40.8912 18.0045L37.6294 14.7428ZM17.979 41.4166C19.481 41.4166 20.9683 41.1208 22.3559 40.546C23.7436 39.9712 25.0045 39.1287 26.0665 38.0667C27.1286 37.0046 27.9711 35.7437 28.5459 34.3561C29.1207 32.9684 29.4165 31.4811 29.4165 29.9791C29.4165 28.4771 29.1207 26.9898 28.5459 25.6022C27.9711 24.2145 27.1286 22.9537 26.0665 21.8916C25.0045 20.8295 23.7436 19.987 22.3559 19.4123C20.9683 18.8375 19.481 18.5416 17.979 18.5416C16.477 18.5416 14.9897 18.8375 13.6021 19.4123C12.2144 19.987 10.9535 20.8295 9.89147 21.8916C8.8294 22.9537 7.98692 24.2145 7.41213 25.6022C6.83734 26.9898 6.5415 28.4771 6.5415 29.9791C6.5415 31.4811 6.83734 32.9684 7.41213 34.3561C7.98692 35.7437 8.8294 37.0046 9.89147 38.0667C10.9535 39.1287 12.2144 39.9712 13.6021 40.546C14.9897 41.1208 16.477 41.4166 17.979 41.4166Z" fill="#1E293B" stroke="white"/>
</g>
<defs>
<clipPath id="clip0_1102_735">
<rect width="43.75" height="50" fill="white" transform="translate(0.791504 0.291626)"/>
</clipPath>
</defs>
</svg>
