<svg width="51" height="51" viewBox="0 0 51 51" fill="none" xmlns="http://www.w3.org/2000/svg">
<g clip-path="url(#clip0_1102_728)">
<path d="M12.0244 2.60022L12.0244 2.6002L12.0205 2.60409L8.99313 5.63143L8.64047 5.98409L8.99223 6.33764L10.9161 8.27124L11.2696 8.62658L11.6241 8.27213L12.3077 7.58854C13.0314 6.86478 14.1977 6.86752 14.9092 7.58664C15.6281 8.31328 15.6297 9.48098 14.913 10.1901L14.9111 10.192L14.2275 10.8756L13.8739 11.2291L14.2275 11.5827L15.7119 13.0671L16.0159 13.3711L16.362 13.116C18.8771 11.2628 21.977 10.1666 25.333 10.1666C28.689 10.1666 31.7889 11.2628 34.304 13.116L34.6501 13.3711L34.9541 13.0671L41.6729 6.3483L42.0264 5.99475L41.6729 5.6412L38.6455 2.61385C38.341 2.30936 38.2534 1.84986 38.4133 1.45659C38.5708 1.06948 38.9634 0.801392 39.3955 0.801392H48.7705C49.3537 0.801392 49.833 1.28066 49.833 1.86389V11.2389C49.833 11.67 49.5752 12.0555 49.1739 12.2227C48.7755 12.3887 48.3198 12.2947 48.0244 11.9927L48.0205 11.9889L44.9932 8.96151L44.6396 8.60796L44.2861 8.96151L37.5673 15.6803L37.2635 15.9841L37.5182 16.3302C39.3617 18.8354 40.458 21.9354 40.458 25.2916C40.458 32.8725 34.881 39.1499 27.6023 40.2464L27.1768 40.3105V40.7408V42.4791V42.9791H27.6768H29.2393C30.2619 42.9791 31.083 43.8002 31.083 44.8229C31.083 45.8456 30.2619 46.6666 29.2393 46.6666H27.6768H27.1768V47.1666V47.9479C27.1768 48.9706 26.3557 49.7916 25.333 49.7916C24.3103 49.7916 23.4893 48.9706 23.4893 47.9479V47.1666V46.6666H22.9893H21.4268C20.4041 46.6666 19.583 45.8456 19.583 44.8229C19.583 43.8002 20.4041 42.9791 21.4268 42.9791H22.9893H23.4893V42.4791V40.7408V40.3105L23.0637 40.2464C15.785 39.1499 10.208 32.8725 10.208 25.2916C10.208 21.9357 11.3042 18.8357 13.1574 16.3206L13.4125 15.9745L13.1084 15.6705L11.6241 14.1861L11.2705 13.8326L10.917 14.1861L10.2334 14.8697C9.5096 15.5935 8.34328 15.5907 7.63181 14.8716C6.9129 14.145 6.91129 12.9773 7.62803 12.2682L7.62992 12.2663L8.31351 11.5827L8.66796 11.2282L8.31262 10.8747L6.37902 8.95085L6.02547 8.59908L5.67281 8.95174L2.64547 11.9791C2.34098 12.2836 1.88148 12.3713 1.4882 12.2113C1.10109 12.0538 0.833008 11.6612 0.833008 11.2291V1.85413C0.833008 1.27089 1.31228 0.791626 1.89551 0.791626H11.2705C11.7016 0.791626 12.0871 1.04946 12.2543 1.45073C12.4203 1.84915 12.3263 2.30488 12.0244 2.60022ZM35.208 25.2916C35.208 22.6726 34.1676 20.1609 32.3157 18.3089C30.4638 16.457 27.952 15.4166 25.333 15.4166C22.714 15.4166 20.2023 16.457 18.3503 18.3089C16.4984 20.1609 15.458 22.6726 15.458 25.2916C15.458 27.9106 16.4984 30.4224 18.3503 32.2743C20.2023 34.1262 22.714 35.1666 25.333 35.1666C27.952 35.1666 30.4638 34.1262 32.3157 32.2743C34.1676 30.4224 35.208 27.9106 35.208 25.2916Z" fill="#1E293B" stroke="white"/>
</g>
<defs>
<clipPath id="clip0_1102_728">
<rect width="50" height="50" fill="white" transform="translate(0.333008 0.291626)"/>
</clipPath>
</defs>
</svg>
