<svg width="38" height="51" viewBox="0 0 38 51" fill="none" xmlns="http://www.w3.org/2000/svg">
<g clip-path="url(#clip0_1102_733)">
<path d="M22.0349 33.8916L21.625 33.9667V34.3834V37.7916V38.2916H22.125H25.25C26.7024 38.2916 27.875 39.4643 27.875 40.9166C27.875 42.369 26.7024 43.5416 25.25 43.5416H22.125H21.625V44.0416V47.1666C21.625 48.619 20.4524 49.7916 19 49.7916C17.5476 49.7916 16.375 48.619 16.375 47.1666V44.0416V43.5416H15.875H12.75C11.2976 43.5416 10.125 42.369 10.125 40.9166C10.125 39.4643 11.2976 38.2916 12.75 38.2916H15.875H16.375V37.7916V34.3834V33.9667L15.9651 33.8916C8.20041 32.4695 2.3125 25.6613 2.3125 17.4791C2.3125 8.26308 9.78396 0.791626 19 0.791626C28.216 0.791626 35.6875 8.26308 35.6875 17.4791C35.6875 25.6613 29.7996 32.4695 22.0349 33.8916ZM8.43313 13.1022C7.85834 14.4898 7.5625 15.9771 7.5625 17.4791C7.5625 18.9811 7.85834 20.4684 8.43313 21.8561C9.00792 23.2437 9.8504 24.5046 10.9125 25.5667C11.9745 26.6287 13.2354 27.4712 14.6231 28.046C16.0107 28.6208 17.498 28.9166 19 28.9166C20.502 28.9166 21.9893 28.6208 23.3769 28.046C24.7646 27.4712 26.0255 26.6287 27.0875 25.5667C28.1496 24.5046 28.9921 23.2437 29.5669 21.8561C30.1417 20.4684 30.4375 18.9811 30.4375 17.4791C30.4375 15.9771 30.1417 14.4898 29.5669 13.1022C28.9921 11.7145 28.1496 10.4537 27.0875 9.39159C26.0255 8.32952 24.7646 7.48704 23.3769 6.91225C21.9893 6.33747 20.502 6.04163 19 6.04163C17.498 6.04163 16.0107 6.33747 14.6231 6.91225C13.2354 7.48704 11.9745 8.32952 10.9125 9.39159C9.8504 10.4537 9.00792 11.7145 8.43313 13.1022Z" fill="#1E293B" stroke="white"/>
</g>
<defs>
<clipPath id="clip0_1102_733">
<rect width="37.5" height="50" fill="white" transform="translate(0.25 0.291626)"/>
</clipPath>
</defs>
</svg>
